<?xml version="1.0" standalone="no"?>
<!DOCTYPE svg PUBLIC "-//W3C//DTD SVG 20010904//EN"
 "http://www.w3.org/TR/2001/REC-SVG-20010904/DTD/svg10.dtd">
<svg version="1.0" xmlns="http://www.w3.org/2000/svg"
 width="512.000000pt" height="512.000000pt" viewBox="0 0 512.000000 512.000000"
 preserveAspectRatio="xMidYMid meet">
<metadata>
Created by potrace 1.14, written by Peter Selinger 2001-2017
</metadata>
<g transform="translate(0.000000,512.000000) scale(0.100000,-0.100000)"
fill="#000000" stroke="none">
<path d="M2160 5102 c-89 -41 -106 -81 -105 -249 1 -109 4 -135 21 -163 32
-55 66 -74 144 -78 l70 -4 0 -119 0 -118 -47 -6 c-27 -4 -79 -14 -118 -22 -38
-8 -81 -17 -94 -19 -13 -3 -83 -24 -156 -48 -619 -204 -1119 -680 -1358 -1291
-37 -95 -90 -279 -103 -355 -4 -25 -8 -47 -9 -50 -1 -3 -5 -30 -9 -60 -5 -30
-10 -64 -13 -75 -9 -38 -11 -380 -3 -450 46 -390 153 -694 354 -998 298 -451
762 -786 1266 -912 36 -9 81 -20 100 -25 65 -17 93 -21 250 -40 74 -8 411 -6
460 4 14 2 48 7 75 11 186 23 450 107 650 207 105 52 319 185 357 220 7 7 34
30 59 50 255 205 464 484 624 833 51 110 122 350 139 470 4 23 8 51 11 64 20
106 27 409 12 551 -37 361 -177 730 -391 1030 -33 47 -63 87 -66 90 -3 3 -17
21 -32 40 -14 19 -43 53 -63 75 -21 22 -49 52 -63 67 l-26 28 67 69 c71 73 87
102 87 157 0 51 -19 80 -107 164 -126 120 -148 136 -195 139 -64 3 -96 -15
-189 -112 l-86 -90 -144 71 c-209 103 -446 178 -651 207 l-48 6 0 120 0 119
56 0 c72 0 119 23 152 73 25 38 26 45 26 176 -1 152 -9 182 -66 223 l-33 23
-395 2 c-217 1 -402 -1 -410 -5z"/>
</g>
</svg>
